<svg width="57" height="40" viewBox="0 0 57 40" fill="none" xmlns="http://www.w3.org/2000/svg">
<g clip-path="url(#clip0)">
<path d="M28.2417 34.2402C28.2417 32.6877 29.4518 31.4418 30.9598 31.4418C32.4677 31.4418 33.6773 32.6877 33.6773 34.2402C33.6773 35.7927 32.4677 37.0387 30.9598 37.0387C29.4518 37.0387 28.2417 35.7927 28.2417 34.2402V34.2402ZM39.2995 34.2402C39.2995 32.6877 40.5097 31.4418 42.0176 31.4418C43.525 31.4418 44.7352 32.6877 44.7352 34.2402C44.7352 35.7927 43.525 37.0387 42.0176 37.0387C40.5097 37.0387 39.2995 35.7927 39.2995 34.2402ZM13.6657 34.2402C13.6657 32.6877 14.8753 31.4418 16.3838 31.4418C17.8912 31.4418 19.1013 32.6877 19.1013 34.2402C19.1013 35.7927 17.8912 37.0387 16.3838 37.0387C14.8753 37.0387 13.6657 35.7927 13.6657 34.2402V34.2402ZM2.60785 34.2402C2.60785 32.6877 3.81746 31.4418 5.3254 31.4418C6.8339 31.4418 8.04351 32.6877 8.04351 34.2402C8.04351 35.7927 6.8339 37.0387 5.3254 37.0387C3.81746 37.0387 2.60785 35.7927 2.60785 34.2402ZM24.9651 29.2952H22.601V39.0892H24.9651V29.2952ZM8.02497 39.0892H10.3891V29.2952H8.02497V30.0813C7.22437 29.5064 6.25634 29.1807 5.21416 29.1807C2.49605 29.1807 0.299316 31.4418 0.299316 34.2402C0.299316 37.0578 2.49605 39.2998 5.21416 39.2998C6.25634 39.2998 7.22437 38.9741 8.02497 38.3992V39.0892ZM44.7166 39.0892H47.0808V29.2952H44.7166V30.0813C43.916 29.5064 42.948 29.1807 41.9058 29.1807C39.1877 29.1807 36.9915 31.4418 36.9915 34.2402C36.9915 37.0578 39.1877 39.2998 41.9058 39.2998C42.948 39.2998 43.916 38.9741 44.7166 38.3992V39.0892ZM47.9561 35.9073C48.0303 37.8815 49.6685 39.2807 52.4052 39.2807C54.639 39.2807 56.4818 38.2841 56.4818 36.0802C56.4818 34.5468 55.6441 33.6462 53.7081 33.2627L52.2001 32.9561C51.2321 32.7647 50.5618 32.5726 50.5618 31.9786C50.5618 31.3273 51.2136 31.0398 52.0327 31.0398C53.2243 31.0398 53.7081 31.6529 53.7451 32.3812H56.1284C55.9981 30.4642 54.5087 29.1807 52.1074 29.1807C49.6315 29.1807 48.1606 30.5793 48.1606 32.4002C48.1606 34.6237 49.9107 34.9876 51.4186 35.2751L52.6659 35.5053C53.5592 35.6776 53.9502 35.946 53.9502 36.4828C53.9502 36.9618 53.5036 37.4407 52.4423 37.4407C50.8973 37.4407 50.3944 36.617 50.3759 35.9073H47.9561ZM19.0828 25.9606V30.0813C18.2822 29.5064 17.3142 29.1807 16.272 29.1807C13.5539 29.1807 11.3572 31.4418 11.3572 34.2402C11.3572 37.0578 13.5539 39.2998 16.272 39.2998C17.3142 39.2998 18.2822 38.9741 19.0828 38.3992V39.0892H21.447V25.9606H19.0828ZM33.6588 25.9606V30.0813C32.8582 29.5064 31.8902 29.1807 30.848 29.1807C28.1299 29.1807 25.9337 31.4418 25.9337 34.2402C25.9337 37.0578 28.1299 39.2998 30.848 39.2998C31.8902 39.2998 32.8582 38.9741 33.6588 38.3992V39.0892H36.0229V25.9606H33.6588ZM6.44231 23.0667L8.04351 25.9606H19.0828L14.7079 18.1789L6.44231 23.0667ZM24.9651 28.3946V25.9606H33.6588L24.3881 9.43942L16.104 14.3266L22.601 25.9606V28.3946H24.9651ZM37.1775 25.9606H48.2353L33.938 0.48877L25.673 5.39502L37.1775 25.9606Z" fill="black"/>
</g>
<defs>
<clipPath id="clip0">
<rect x="0.299316" y="0.48877" width="56.1825" height="39.3333" fill="white"/>
</clipPath>
</defs>
</svg>
