<svg width="128" height="58" viewBox="0 0 128 58" fill="none" xmlns="http://www.w3.org/2000/svg">
<g clip-path="url(#clip0)">
<path d="M99.2417 43.2402C99.2417 41.6877 100.452 40.4418 101.96 40.4418C103.468 40.4418 104.677 41.6877 104.677 43.2402C104.677 44.7927 103.468 46.0387 101.96 46.0387C100.452 46.0387 99.2417 44.7927 99.2417 43.2402V43.2402ZM110.3 43.2402C110.3 41.6877 111.51 40.4418 113.018 40.4418C114.525 40.4418 115.735 41.6877 115.735 43.2402C115.735 44.7927 114.525 46.0387 113.018 46.0387C111.51 46.0387 110.3 44.7927 110.3 43.2402ZM84.6657 43.2402C84.6657 41.6877 85.8753 40.4418 87.3838 40.4418C88.8912 40.4418 90.1013 41.6877 90.1013 43.2402C90.1013 44.7927 88.8912 46.0387 87.3838 46.0387C85.8753 46.0387 84.6657 44.7927 84.6657 43.2402V43.2402ZM73.6079 43.2402C73.6079 41.6877 74.8175 40.4418 76.3254 40.4418C77.8339 40.4418 79.0435 41.6877 79.0435 43.2402C79.0435 44.7927 77.8339 46.0387 76.3254 46.0387C74.8175 46.0387 73.6079 44.7927 73.6079 43.2402ZM95.9651 38.2952H93.601V48.0892H95.9651V38.2952ZM79.025 48.0892H81.3891V38.2952H79.025V39.0813C78.2244 38.5064 77.2563 38.1807 76.2142 38.1807C73.4961 38.1807 71.2993 40.4418 71.2993 43.2402C71.2993 46.0578 73.4961 48.2998 76.2142 48.2998C77.2563 48.2998 78.2244 47.9741 79.025 47.3992V48.0892ZM115.717 48.0892H118.081V38.2952H115.717V39.0813C114.916 38.5064 113.948 38.1807 112.906 38.1807C110.188 38.1807 107.992 40.4418 107.992 43.2402C107.992 46.0578 110.188 48.2998 112.906 48.2998C113.948 48.2998 114.916 47.9741 115.717 47.3992V48.0892ZM118.956 44.9073C119.03 46.8815 120.669 48.2807 123.405 48.2807C125.639 48.2807 127.482 47.2841 127.482 45.0802C127.482 43.5468 126.644 42.6462 124.708 42.2627L123.2 41.9561C122.232 41.7647 121.562 41.5726 121.562 40.9786C121.562 40.3273 122.214 40.0398 123.033 40.0398C124.224 40.0398 124.708 40.6529 124.745 41.3812H127.128C126.998 39.4642 125.509 38.1807 123.107 38.1807C120.631 38.1807 119.161 39.5793 119.161 41.4002C119.161 43.6237 120.911 43.9876 122.419 44.2751L123.666 44.5053C124.559 44.6776 124.95 44.946 124.95 45.4828C124.95 45.9618 124.504 46.4407 123.442 46.4407C121.897 46.4407 121.394 45.617 121.376 44.9073H118.956ZM90.0828 34.9606V39.0813C89.2822 38.5064 88.3142 38.1807 87.272 38.1807C84.5539 38.1807 82.3572 40.4418 82.3572 43.2402C82.3572 46.0578 84.5539 48.2998 87.272 48.2998C88.3142 48.2998 89.2822 47.9741 90.0828 47.3992V48.0892H92.447V34.9606H90.0828ZM104.659 34.9606V39.0813C103.858 38.5064 102.89 38.1807 101.848 38.1807C99.1299 38.1807 96.9337 40.4418 96.9337 43.2402C96.9337 46.0578 99.1299 48.2998 101.848 48.2998C102.89 48.2998 103.858 47.9741 104.659 47.3992V48.0892H107.023V34.9606H104.659ZM77.4423 32.0667L79.0435 34.9606H90.0828L85.7079 27.1789L77.4423 32.0667ZM95.9651 37.3946V34.9606H104.659L95.3881 18.4394L87.104 23.3266L93.601 34.9606V37.3946H95.9651ZM108.177 34.9606H119.235L104.938 9.48877L96.673 14.395L108.177 34.9606Z" fill="black"/>
</g>
<path d="M36.7278 2.19922C36.7278 2.19922 33.9377 4.61203 23.4103 4.627C12.8755 4.70704 10.0533 2.31439 10.0533 2.31439L2.48071 9.92482C2.48071 9.92482 6.39325 17.2727 6.4317 25.8378C6.4317 25.8378 7.49505 48.6386 23.6301 54.9729C39.7107 48.509 40.5652 25.6795 40.5652 25.6795C40.5175 17.1183 44.3744 9.73421 44.3744 9.73421L36.7278 2.19922Z" fill="white"/>
<path d="M25.6197 6.24424L9.51965 34.0952C10.7919 39.0855 13.3071 44.954 17.9048 49.5078L41.3181 9.00659L36.6131 4.27368C36.6131 4.27368 33.6319 5.9494 25.6197 6.24424Z" fill="#EC1C2E"/>
<path d="M23.3897 12.9288C16.6888 12.9634 11.2532 18.408 11.2865 25.0464C11.3141 31.6918 16.803 37.0731 23.493 37.0581L23.5131 37.2481L23.5045 37.0581C30.2145 37.0276 35.6243 31.5806 35.6059 24.9336C35.5738 18.286 30.0969 12.8989 23.3897 12.9288Z" fill="white"/>
<path d="M23.6067 55.3779L23.4586 55.3197C19.7108 53.8484 16.4593 51.3751 13.7949 47.9684C11.6722 45.2544 9.9162 41.9462 8.57625 38.1352C6.30034 31.6621 6.00768 25.8852 6.00538 25.8276L6.00481 25.8103C5.96751 17.442 2.13989 10.1581 2.10145 10.0856L1.96143 9.82241L10.0051 1.73864L10.2875 1.97819C10.2921 1.98164 11.006 2.55634 12.9685 3.11434C14.7819 3.6303 18.0615 4.23667 23.3823 4.19579C28.7019 4.1883 31.9706 3.55371 33.7759 3.02336C35.7299 2.44923 36.4357 1.86993 36.4426 1.86417L36.7227 1.62231L36.9838 1.88433L44.8433 9.62893L44.705 9.89382C44.6952 9.91224 43.7398 11.7561 42.8027 14.6123C41.9402 17.2405 40.9176 21.2887 40.9417 25.6502V25.6588L40.9411 25.6675C40.9388 25.7251 40.6995 31.5095 38.4821 38.0056C37.1766 41.8304 35.451 45.1548 33.3524 47.8878C30.7184 51.3181 27.4888 53.8185 23.7536 55.3203L23.6067 55.3779ZM6.8082 25.7982C6.82083 26.0406 7.1376 31.6316 9.34062 37.887C11.3835 43.6881 15.5142 51.2628 23.6032 54.5101C31.6641 51.1978 35.7259 43.5845 37.716 37.7626C39.8617 31.4853 40.1279 25.8875 40.1383 25.6433C40.1147 21.1701 41.162 17.0286 42.0452 14.3411C42.8038 12.0319 43.5584 10.4023 43.8586 9.78671L36.659 2.69282C35.6846 3.30552 32.2059 4.98931 23.3857 5.00197C14.5598 5.06992 11.0582 3.41263 10.0769 2.80799L2.94616 9.97328C3.25145 10.5854 4.0187 12.2087 4.79684 14.511C5.70296 17.191 6.78697 21.3227 6.8082 25.7982Z" fill="black"/>
<path d="M23.3391 37.4484L23.3379 37.4363C16.5045 37.3545 10.9536 31.8315 10.9255 25.0405C10.891 18.1804 16.4936 12.5705 23.4137 12.5348C30.3303 12.5026 35.9857 18.0618 36.0195 24.9236C36.0385 31.7924 30.4371 37.4057 23.5325 37.4374V37.434L23.5198 37.4374C23.5095 37.4374 23.4969 37.4374 23.4866 37.4374L23.3391 37.4484ZM23.416 12.9414C16.7191 12.9759 11.2979 18.4027 11.3312 25.0382C11.3587 31.6565 16.8115 37.0297 23.4923 37.0297C23.5015 37.0297 23.5107 37.0297 23.5204 37.0297H23.5422C30.2184 36.994 35.6339 31.5661 35.6155 24.9248C35.5828 18.306 30.1404 12.9408 23.4722 12.9408C23.4521 12.9414 23.4343 12.9414 23.416 12.9414Z" fill="black"/>
<path d="M41.3534 11.6099C41.3494 11.6231 41.3425 11.6358 41.3379 11.6496L35.5776 21.6337C35.6212 21.8041 35.6619 21.9763 35.6987 22.1496L40.6872 13.5033C39.6606 16.6376 38.5978 21.006 38.6127 25.6255C38.6035 25.8616 38.2999 31.4116 36.2444 37.4085C34.4213 42.7835 30.7417 49.8658 23.553 53.1488C21.9789 52.4474 20.573 51.5617 19.3105 50.5528L27.4202 36.4969C27.2515 36.5534 27.0817 36.6075 26.9101 36.657L19.0247 50.3242C19.0236 50.3242 19.0207 50.3219 19.0207 50.3219L18.8359 50.6432C18.8371 50.6455 18.8371 50.6455 18.84 50.6473L18.8371 50.6484H18.8417C20.2063 51.7748 21.7471 52.7555 23.4824 53.5167L23.5519 53.549L23.6248 53.5167C30.9799 50.1993 34.73 42.9885 36.5841 37.5288C38.6563 31.4824 38.9622 25.8823 38.9742 25.6347C38.9536 20.0783 40.5093 14.8899 41.6627 11.8114L41.6667 11.8022V11.8005H41.6679V11.797L41.3534 11.6099Z" fill="#020000"/>
<path d="M17.8599 49.2495C14.2498 45.7668 12.0427 41.2665 10.7332 37.5667C10.3218 36.3937 9.98146 35.2426 9.69223 34.1433L12.0508 30.0709C11.9899 29.9373 11.9326 29.8025 11.8763 29.6666L9.31292 34.0937L9.30603 34.1035C9.60501 35.2547 9.96481 36.4616 10.3941 37.6917C11.7575 41.5441 14.0805 46.2614 17.9385 49.8346L18.0797 49.5737L25.153 37.33C25.0078 37.349 24.8615 37.3646 24.7146 37.379L17.8599 49.2495ZM36.6204 4.00562L36.509 4.05514C34.7186 4.85442 31.4063 5.80111 25.584 6.01015L25.5788 6.00324L21.7237 12.6612C21.8706 12.6405 22.0181 12.6215 22.1661 12.6054L25.7768 6.3712C31.4293 6.15065 34.7186 5.23563 36.5429 4.44038L41.1211 8.96771L34.8885 19.7609C34.951 19.895 35.0113 20.0304 35.0692 20.1668L41.3879 9.2303L41.5744 8.90782V8.90379L36.6204 4.00562Z" fill="#020000"/>
<path d="M21.8043 34.0049C17.5601 33.2263 14.3482 29.4931 14.3482 25.0147C14.3482 20.5329 17.5595 16.8072 21.8043 16.0252V14.0166C16.4669 14.8193 12.3759 19.4353 12.3759 25.0147C12.3759 25.6683 12.4355 26.3052 12.5383 26.9248C13.3508 31.618 17.0895 35.3017 21.8049 36.0112V34.0049H21.8043Z" fill="#020000"/>
<path d="M15.4652 25.0153C15.4652 27.7304 16.8109 30.1237 18.8624 31.5737V28.7635C18.1755 27.9118 17.713 26.8667 17.5804 25.7219H19.9964V32.2347C19.9964 32.2347 20.7453 32.6373 21.804 32.8618V17.1682C18.1864 17.9318 15.4652 21.1571 15.4652 25.0153ZM19.9964 23.9062H17.6401C17.9293 22.3831 18.7896 21.0702 19.9964 20.1972V23.9062Z" fill="#020000"/>
<path d="M30.6767 16.5153V16.5072C30.1327 16.0293 29.4446 15.6066 29.063 15.3872V34.62C29.4612 34.3799 30.3714 33.7297 30.8678 33.2858V31.2605C32.9939 29.4748 34.3384 26.8737 34.3384 23.9674C34.3379 20.9764 32.9147 18.3045 30.6767 16.5153ZM30.8649 28.4659L30.8678 19.5178C31.8714 20.7322 32.4751 22.2934 32.4751 23.9956C32.4746 25.688 31.8588 27.2549 30.8649 28.4659Z" fill="#020000"/>
<path d="M26.36 35.6948C26.36 35.6948 27.2282 35.5283 28.1579 35.0216L26.5729 30.1562L26.5827 30.1338C26.8621 29.9317 27.1227 29.699 27.3367 29.4209C27.7401 28.9544 28.054 28.3342 28.054 27.5206V25.6145H28.0563V17.7997C28.0563 13.904 22.9771 13.8752 22.9771 13.8752L22.9708 36.1232C22.9708 36.1232 23.8746 36.1537 24.7727 36.0322V30.9267L24.7991 30.9233L26.36 35.6948ZM24.7762 16.3842C25.5887 16.5662 26.1953 17.195 26.2131 18.0645V27.0657C26.1649 27.907 25.571 28.5105 24.7762 28.6844V16.3842Z" fill="#020000"/>
<path d="M24.0887 6.04559L24.0899 6.04213L24.0652 6.04559C23.8936 6.04789 23.7243 6.04962 23.5504 6.05135H22.8107C15.9503 6.05135 12.1549 5.03497 10.1791 4.18099L10.0689 4.1355L4.23682 9.97979L4.28961 10.0961C5.34894 12.4882 7.8234 18.7989 7.87103 25.7615L7.8739 25.822C7.96227 26.9938 8.20616 29.4003 8.86208 32.3671L8.94816 32.2122L11.3245 28.1046C11.2797 27.933 11.239 27.7603 11.2017 27.5858L9.01587 31.3616C8.51031 28.8411 8.3129 26.8326 8.23428 25.7932L8.23256 25.7483C8.18321 18.8363 5.76614 12.5584 4.67237 10.0621L10.1492 4.56796C12.1853 5.42597 16.0146 6.42162 22.8113 6.42162L23.454 6.41989L19.553 13.159C19.7211 13.1043 19.8904 13.0525 20.0614 13.0041L23.8724 6.41759L24.0939 6.04559H24.0887V6.04559Z" fill="#020000"/>
<path d="M58 8L58 48" stroke="black"/>
<defs>
<clipPath id="clip0">
<rect x="71.2993" y="9.48877" width="56.1825" height="39.3333" fill="white"/>
</clipPath>
</defs>
</svg>
