<?xml version="1.0" standalone="no"?>
<!DOCTYPE svg PUBLIC "-//W3C//DTD SVG 20010904//EN"
 "http://www.w3.org/TR/2001/REC-SVG-20010904/DTD/svg10.dtd">
<svg version="1.0" xmlns="http://www.w3.org/2000/svg"
 width="264.000000pt" height="264.000000pt" viewBox="0 0 264.000000 264.000000"
 preserveAspectRatio="xMidYMid meet">
<metadata>
Created by potrace 1.11, written by Peter Selinger 2001-2013
</metadata>
<g transform="translate(0.000000,264.000000) scale(0.100000,-0.100000)"
fill="#000000" stroke="none">
<path d="M1436 2154 c-77 -46 -141 -84 -142 -84 -12 0 -94 -57 -94 -65 0 -6
32 -66 70 -134 39 -68 70 -125 70 -126 0 -1 55 -101 123 -221 68 -121 156
-278 196 -350 l73 -132 259 1 c142 0 259 2 259 3 0 2 -8 18 -19 36 -55 97
-102 179 -131 233 -18 33 -71 126 -117 207 -45 82 -83 152 -83 158 0 5 -4 10
-10 10 -5 0 -10 5 -10 11 0 6 -24 52 -53 102 -30 51 -68 119 -87 152 -18 33
-42 76 -53 95 -11 19 -36 64 -55 100 -19 36 -40 70 -46 76 -8 9 -46 -9 -150
-72z"/>
<path d="M933 1703 l-192 -115 24 -39 c14 -21 25 -40 25 -43 0 -2 30 -57 67
-122 198 -352 193 -342 190 -400 -2 -55 -1 -56 43 -56 73 0 70 -2 70 57 0 50
2 55 23 56 12 0 102 1 200 1 97 0 177 3 177 6 0 6 -85 161 -181 332 -85 151
-176 313 -202 360 -16 30 -35 60 -41 66 -8 8 -62 -19 -203 -103z"/>
<path d="M482 1293 l-192 -114 31 -59 c17 -32 36 -63 42 -68 7 -5 120 -10 260
-10 136 0 251 -2 254 -5 3 -4 5 -39 5 -79 0 -117 3 -109 -33 -91 -45 22 -112
28 -163 13 -201 -56 -222 -345 -33 -442 52 -26 140 -28 187 -4 26 12 35 13 41
4 4 -7 31 -13 58 -14 40 -1 51 2 52 15 7 114 2 601 -6 602 -5 0 -31 2 -58 2
-39 2 -49 6 -60 27 -8 14 -25 45 -39 70 -14 25 -49 88 -78 140 -29 52 -58 102
-64 111 -10 15 -35 2 -204 -98z m334 -523 c10 0 47 -45 58 -70 28 -67 -19
-158 -91 -176 -41 -11 -104 16 -130 55 -66 98 22 230 132 199 16 -4 30 -8 31
-8z"/>
<path d="M1569 1005 c-1 -22 -1 -64 0 -92 1 -29 -2 -53 -7 -53 -5 0 -26 7 -45
15 -121 50 -271 -29 -304 -160 -46 -189 125 -350 302 -284 60 23 55 22 55 6 0
-9 16 -13 53 -13 l52 1 3 308 c2 242 0 307 -10 308 -7 0 -32 1 -55 2 l-43 2
-1 -40z m-45 -253 c29 -27 44 -64 42 -107 -5 -108 -131 -162 -207 -89 -40 38
-53 83 -39 133 11 41 55 85 95 93 28 6 86 -11 109 -30z"/>
<path d="M129 865 c-170 -88 -169 -339 3 -426 52 -26 136 -29 190 -6 24 10 38
12 40 5 2 -6 27 -11 55 -13 40 -2 52 1 55 14 2 9 3 113 3 231 l-1 215 -53 0
c-42 1 -55 -3 -58 -16 -4 -15 -7 -15 -36 0 -51 25 -143 24 -198 -4z m164 -97
c79 -42 94 -151 28 -210 -41 -37 -76 -44 -125 -27 -133 46 -103 248 37 249 21
0 48 -5 60 -12z"/>
<path d="M1049 860 c-5 -197 -2 -430 6 -431 6 -1 30 -2 55 -3 l45 -1 0 230 0
230 -52 0 c-50 1 -53 0 -54 -25z"/>
<path d="M1877 876 c-58 -21 -93 -54 -128 -120 -26 -48 -29 -144 -7 -197 50
-116 177 -171 293 -128 59 23 55 22 55 6 0 -9 16 -13 53 -12 l52 0 0 230 0
230 -52 0 c-44 1 -53 -2 -53 -17 0 -16 -3 -16 -42 2 -50 23 -117 25 -171 6z
m170 -128 c28 -26 47 -89 38 -127 -3 -16 -19 -42 -36 -59 -53 -55 -124 -54
-176 1 -37 39 -47 76 -33 127 24 90 138 123 207 58z"/>
<path d="M2350 877 c-70 -33 -100 -76 -100 -145 0 -63 44 -105 125 -122 112
-23 140 -34 143 -56 9 -63 -131 -68 -157 -6 -10 24 -16 27 -61 26 -28 0 -53
-3 -56 -7 -10 -10 15 -73 39 -95 37 -35 97 -54 167 -55 116 0 193 61 189 148
-5 84 -40 113 -178 144 -97 22 -119 41 -85 75 23 23 89 21 114 -4 11 -11 20
-24 20 -30 0 -6 26 -10 59 -10 l60 0 -12 35 c-17 49 -58 89 -105 103 -49 15
-129 14 -162 -1z"/>
</g>
</svg>
