<?xml version="1.0" standalone="no"?>
<!DOCTYPE svg PUBLIC "-//W3C//DTD SVG 20010904//EN"
 "http://www.w3.org/TR/2001/REC-SVG-20010904/DTD/svg10.dtd">
<svg version="1.0" xmlns="http://www.w3.org/2000/svg"
 width="257.000000pt" height="257.000000pt" viewBox="0 0 257.000000 257.000000"
 preserveAspectRatio="xMidYMid meet">
<metadata>
Created by potrace 1.11, written by Peter Selinger 2001-2013
</metadata>
<g transform="translate(0.000000,257.000000) scale(0.100000,-0.100000)"
fill="#000000" stroke="none">
<path d="M1885 2549 c-43 -27 -135 -56 -245 -76 -136 -25 -604 -25 -736 0
-101 19 -188 46 -235 74 l-31 18 -188 -193 -188 -193 44 -102 c81 -191 144
-459 144 -610 0 -99 31 -299 70 -452 121 -476 350 -804 676 -967 l101 -50 89
46 c286 148 494 416 623 802 71 213 96 358 121 682 15 205 69 420 150 598 l28
62 -192 191 c-105 105 -193 191 -196 190 -3 0 -18 -9 -35 -20z m373 -365 c2
-1 -13 -39 -32 -85 -91 -223 -128 -393 -146 -673 -23 -363 -132 -715 -300
-969 -104 -157 -270 -306 -426 -385 l-61 -31 -64 32 c-421 213 -694 726 -739
1387 -15 233 -62 437 -146 631 l-35 83 169 168 168 169 48 -20 c125 -54 311
-81 568 -81 283 0 505 32 614 88 l39 20 170 -166 c94 -92 171 -167 173 -168z"/>
<path d="M506 2311 l-138 -138 35 -89 c78 -197 122 -398 137 -623 10 -147 36
-330 49 -343 4 -4 31 35 61 86 l55 95 14 -35 c13 -34 12 -36 -49 -141 l-61
-107 36 -116 c48 -150 120 -300 200 -419 65 -98 169 -220 178 -211 3 3 81 136
173 295 92 160 168 292 170 293 5 7 74 20 70 13 -2 -3 -82 -143 -179 -311 -97
-168 -179 -312 -182 -321 -8 -20 49 -64 150 -116 l72 -37 66 38 c382 213 629
713 667 1348 11 182 43 357 94 515 19 57 29 102 24 101 -6 -2 -70 -106 -142
-230 -72 -125 -134 -229 -137 -232 -3 -3 -10 9 -16 27 -9 31 -2 46 145 301
l155 268 -116 116 -116 116 -88 -27 c-95 -29 -228 -52 -363 -62 l-85 -7 -90
-156 c-81 -141 -93 -157 -124 -165 -18 -4 -35 -7 -37 -5 -1 2 37 73 87 158 49
85 89 158 89 163 0 4 -45 7 -99 7 -181 0 -392 29 -511 71 -30 10 -55 19 -55
19 0 0 -63 -62 -139 -139z m387 54 c51 -8 159 -18 240 -22 101 -4 146 -10 143
-17 -2 -6 -42 -76 -88 -155 l-83 -144 -81 -41 c-147 -75 -237 -173 -298 -324
-29 -72 -31 -86 -32 -211 l-1 -135 -44 -78 c-24 -42 -47 -78 -50 -78 -9 0 -29
148 -39 301 -16 226 -69 463 -144 644 l-25 60 131 131 130 131 74 -23 c41 -13
116 -31 167 -39z m512 -350 c265 -56 458 -289 459 -555 1 -167 -48 -284 -169
-406 -128 -128 -264 -181 -440 -171 -151 9 -272 63 -379 171 -218 218 -221
574 -7 794 145 148 339 208 536 167z m664 -155 c-32 -125 -59 -308 -59 -408 0
-37 -7 -112 -15 -167 -78 -550 -306 -958 -637 -1140 l-68 -37 -67 37 c-38 20
-83 49 -100 63 l-32 27 184 320 185 320 87 43 c226 113 365 357 337 594 l-10
80 109 189 c60 104 110 189 111 189 2 0 -10 -50 -25 -110z"/>
<path d="M1156 1969 c-127 -30 -268 -140 -329 -256 -49 -95 -67 -163 -67 -258
0 -145 48 -269 144 -369 61 -63 117 -100 202 -132 96 -36 106 -34 102 22 -3
45 -5 47 -43 59 -209 62 -344 279 -306 490 29 159 147 294 298 342 l53 17 0
48 c0 26 -3 48 -7 47 -5 -1 -25 -5 -47 -10z"/>
<path d="M1260 1450 l0 -530 45 0 45 0 1 118 1 117 35 -105 c20 -58 37 -106
38 -108 3 -4 69 20 79 28 4 5 -8 58 -29 120 l-37 111 20 22 c48 50 52 81 52
347 0 267 -4 296 -52 347 -26 28 -117 63 -163 63 l-35 0 0 -530z m131 391 l24
-19 0 -252 0 -252 -24 -19 c-13 -10 -27 -19 -32 -19 -5 0 -9 127 -9 290 0 163
4 290 9 290 5 0 19 -9 32 -19z"/>
<path d="M1550 1455 c0 -250 3 -455 8 -455 4 0 24 11 45 25 34 24 37 30 37 74
0 42 5 53 44 96 57 62 101 152 117 237 30 163 -52 349 -198 449 -23 16 -44 29
-47 29 -3 0 -6 -205 -6 -455z m143 168 c30 -67 29 -178 -3 -250 -46 -107 -50
-96 -50 133 0 229 1 231 53 117z"/>
<path d="M1159 1815 c-260 -95 -337 -436 -143 -631 l49 -49 3 63 c3 54 -1 72
-28 124 -44 89 -42 98 25 98 l55 0 0 -156 0 -155 35 -15 c19 -7 39 -14 45 -14
7 0 10 124 10 375 0 206 -3 375 -7 374 -5 0 -24 -6 -44 -14z m-39 -220 l0 -85
-56 0 c-53 0 -55 1 -48 23 12 38 33 75 65 112 17 19 33 35 35 35 2 0 4 -38 4
-85z"/>
</g>
</svg>
